<?xml version="1.0" encoding="utf-8"?>
<!-- Generator: Adobe Illustrator 24.2.1, SVG Export Plug-In . SVG Version: 6.00 Build 0)  -->
<svg version="1.1" id="Capa_1" xmlns="http://www.w3.org/2000/svg" xmlns:xlink="http://www.w3.org/1999/xlink" x="0px" y="0px"
	 viewBox="0 0 32 32" style="enable-background:new 0 0 32 32;" xml:space="preserve">
<style type="text/css">
	.st0{fill:none;stroke:#000000;stroke-miterlimit:10;}
	.st1{clip-path:url(#SVGID_2_);}
	.st2{clip-path:url(#SVGID_4_);}
	.st3{clip-path:url(#SVGID_6_);}
	.st4{clip-path:url(#SVGID_8_);}
	.st5{clip-path:url(#SVGID_10_);}
	.st6{clip-path:url(#SVGID_12_);}
	.st7{clip-path:url(#SVGID_14_);}
	.st8{clip-path:url(#SVGID_16_);}
	.st9{clip-path:url(#SVGID_18_);}
	.st10{clip-path:url(#SVGID_20_);}
	.st11{clip-path:url(#SVGID_22_);}
	.st12{clip-path:url(#SVGID_24_);}
	.st13{clip-path:url(#SVGID_26_);}
	.st14{clip-path:url(#SVGID_28_);}
	.st15{clip-path:url(#SVGID_30_);}
	.st16{clip-path:url(#SVGID_32_);}
	.st17{clip-path:url(#SVGID_34_);}
	.st18{clip-path:url(#SVGID_36_);}
	.st19{clip-path:url(#SVGID_38_);}
	.st20{clip-path:url(#SVGID_40_);}
	.st21{clip-path:url(#SVGID_42_);}
	.st22{clip-path:url(#SVGID_44_);}
	.st23{clip-path:url(#SVGID_46_);}
	.st24{fill:none;stroke:#000000;stroke-linejoin:bevel;stroke-miterlimit:10;}
	.st25{fill:none;stroke:#000000;stroke-linecap:round;stroke-miterlimit:10;}
	.st26{fill:#FFFFFF;}
</style>
<g>
	<rect x="-0.23" y="15.26" transform="matrix(0.9365 -0.3506 0.3506 0.9365 -4.6047 6.4906)" width="31.71" height="1.4"/>
	<rect x="15.68" y="0.11" transform="matrix(0.3506 -0.9365 0.9365 0.3506 -4.3155 25.7052)" width="1.4" height="31.71"/>
	<path d="M15.98,27.45C9.66,27.45,4.53,22.32,4.53,16S9.66,4.55,15.98,4.55S27.42,9.68,27.42,16S22.27,27.45,15.98,27.45z
		 M15.98,6.11c-5.45,0-9.89,4.44-9.89,9.89s4.44,9.89,9.89,9.89s9.89-4.44,9.89-9.89S21.43,6.11,15.98,6.11z"/>
</g>
</svg>
