<?xml version="1.0" encoding="utf-8"?>
<!-- Generator: Adobe Illustrator 24.2.1, SVG Export Plug-In . SVG Version: 6.00 Build 0)  -->
<svg version="1.1" id="Capa_1" xmlns="http://www.w3.org/2000/svg" xmlns:xlink="http://www.w3.org/1999/xlink" x="0px" y="0px"
	 viewBox="0 0 32 32" style="enable-background:new 0 0 32 32;" xml:space="preserve">
<style type="text/css">
	.st0{fill:none;stroke:#000000;stroke-miterlimit:10;}
	.st1{clip-path:url(#SVGID_2_);}
	.st2{clip-path:url(#SVGID_4_);}
	.st3{clip-path:url(#SVGID_6_);}
	.st4{clip-path:url(#SVGID_8_);}
	.st5{clip-path:url(#SVGID_10_);}
	.st6{clip-path:url(#SVGID_12_);}
	.st7{clip-path:url(#SVGID_14_);}
	.st8{clip-path:url(#SVGID_16_);}
	.st9{clip-path:url(#SVGID_18_);}
	.st10{clip-path:url(#SVGID_20_);}
	.st11{clip-path:url(#SVGID_22_);}
	.st12{clip-path:url(#SVGID_24_);}
	.st13{clip-path:url(#SVGID_26_);}
	.st14{clip-path:url(#SVGID_28_);}
	.st15{clip-path:url(#SVGID_30_);}
	.st16{clip-path:url(#SVGID_32_);}
	.st17{clip-path:url(#SVGID_34_);}
	.st18{clip-path:url(#SVGID_36_);}
	.st19{clip-path:url(#SVGID_38_);}
	.st20{clip-path:url(#SVGID_40_);}
	.st21{clip-path:url(#SVGID_42_);}
	.st22{clip-path:url(#SVGID_44_);}
	.st23{clip-path:url(#SVGID_46_);}
	.st24{fill:none;stroke:#000000;stroke-linejoin:bevel;stroke-miterlimit:10;}
	.st25{fill:none;stroke:#000000;stroke-linecap:round;stroke-miterlimit:10;}
	.st26{fill:#FFFFFF;}
</style>
<g>
	<rect x="0.53" y="15.34" transform="matrix(0.9365 -0.3506 0.3506 0.9365 -4.6163 6.4967)" width="30.21" height="1.32"/>
	<rect x="15.7" y="0.91" transform="matrix(0.3506 -0.9365 0.9365 0.3506 -4.3703 25.7275)" width="1.32" height="30.21"/>
	<path d="M15.98,24.98c-4.83,0-8.78-3.92-8.78-8.78c0.02-4.83,3.95-8.78,8.78-8.78s8.78,3.92,8.78,8.78
		C24.75,21.03,20.83,24.98,15.98,24.98z M15.98,8.63c-4.18,0-7.57,3.39-7.57,7.57s3.39,7.57,7.57,7.57s7.57-3.39,7.57-7.57
		S20.16,8.63,15.98,8.63z"/>
	<path d="M27.66,27.6H4.46V4.4h23.2C27.66,4.4,27.66,27.6,27.66,27.6z M5.9,26.14h20.3V5.86H5.9V26.14z"/>
</g>
</svg>
